#!OML:ASF H:\Not Pregnant\Project 1\Capture day 1\Session 1\non-pregnant.ASF
:FULLY-SPECIFIED
:DEGREES
728
root 16.8061 15.9181 16.5753 15.9087 -28.5337 -5.60072
lowerback -3.20862 2.94527 4.86451
upperback -6.67884 3.89975 0.138587
thorax -4.82245 1.69575 -2.59878
lowerneck 32.6827 -15.308 -25.8513
upperneck -22.6793 -25.8093 50.2205
head 0.474384 -18.2377 27.1269
rclavicle -8.65583e-014 -9.34288e-015
rhumerus -16.424 -14.0841 -57.1381
rradius 29.1221
rwrist -0.812023
rhand -17.6928 -7.05922
rfingers 7.12502
rthumb 8.56685 -36.8654
lclavicle -8.65583e-014 -9.34288e-015
lhumerus -54.4703 -14.6814 89.6077
lradius 50.612
lwrist 40.4018
lhand -19.0822 -14.5979
lfingers 7.12502
lthumb 7.22578 15.2587
rfemur -24.3367 18.637 26.5051
rtibia 33.4817
rfoot -17.007 16.1139
rtoes -1.94803
lfemur -35.5296 -0.686693 -9.05355
ltibia 55.924
lfoot -13.3069 10.2432
ltoes -32.7092
729
root 16.8451 15.9046 16.6672 16.1341 -30.8593 -5.76613
lowerback -2.97524 2.99542 4.81726
upperback -6.59245 3.97165 0.021413
thorax -4.85158 1.73029 -2.70417
lowerneck 32.0372 -15.0465 -25.9177
upperneck -22.2264 -25.4845 49.9973
head 0.505566 -17.9738 26.9451
rclavicle -5.46658e-016 6.75868e-015
rhumerus -14.881 -13.4946 -55.8587
rradius 29.2155
rwrist 2.26893
rhand -17.7227 -6.30779
rfingers 7.12502
rthumb 8.5379 -36.1152
lclavicle -5.46658e-016 6.75868e-015
lhumerus -55.168 -14.9635 89.1081
lradius 51.8434
lwrist 41.2105
lhand -18.5053 -14.4195
lfingers 7.12502
lthumb 7.78265 15.4173
rfemur -24.4195 20.0367 25.9729
rtibia 33.8351
rfoot -17.272 16.6935
rtoes -1.58593
lfemur -35.7576 -1.20451 -8.22783
ltibia 54.7072
lfoot -13.5618 10.4084
ltoes -32.5847
730
root 16.8829 15.8867 16.7573 16.3509 -33.1977 -5.94381
lowerback -2.71019 3.0348 4.73945
upperback -6.48979 4.03072 -0.0943712
thorax -4.88425 1.76035 -2.79284
lowerneck 31.3077 -14.7928 -25.9576
upperneck -21.7645 -25.1366 49.7639
head 0.537158 -17.69 26.734
rclavicle 1.04362e-015 2.38542e-015
rhumerus -13.2203 -13.0587 -54.6433
rradius 29.2621
rwrist 5.73057
rhand -17.9811 -5.83153
rfingers 7.12502
rthumb 8.28857 -35.6489
lclavicle 1.04362e-015 2.38542e-015
lhumerus -55.8292 -15.1771 88.5394
lradius 52.986
lwrist 42.0744
lhand -17.9983 -14.2619
lfingers 7.12502
lthumb 8.27198 15.5562
rfemur -24.5744 21.5008 25.4256
rtibia 34.2936
rfoot -17.5359 17.2119
rtoes -1.28305
lfemur -35.9446 -1.69987 -7.34582
ltibia 53.5794
lfoot -13.7149 10.4177
ltoes -32.6577
731
root 16.9197 15.8649 16.8463 16.5522 -35.5339 -6.13131
lowerback -2.41477 3.06272 4.64176
upperback -6.37365 4.07568 -0.211915
thorax -4.9222 1.78456 -2.87395
lowerneck 30.4854 -14.5519 -25.9845
upperneck -21.2665 -24.7859 49.519
head 0.59087 -17.3948 26.4794
rclavicle -6.00268e-014 -3.97569e-016
rhumerus -11.4698 -12.8251 -53.4889
rradius 29.282
rwrist 9.44076
rhand -18.3479 -5.67744
rfingers 7.12502
rthumb 7.93454 -35.5085
lclavicle -6.00268e-014 -3.97569e-016
lhumerus -56.4667 -15.3373 87.9163
lradius 54.0291
lwrist 42.9541
lhand -17.5424 -14.0796
lfingers 7.12502
lthumb 8.71199 15.7206
rfemur -24.7936 22.9904 24.8678
rtibia 34.8608
rfoot -17.7972 17.6925
rtoes -1.07412
lfemur -36.0848 -2.17295 -6.42368
ltibia 52.5592
lfoot -13.7613 10.2835
ltoes -32.9422
732
root 16.9561 15.8393 16.9333 16.7442 -37.8444 -6.32851
lowerback -2.08803 3.0761 4.53007
upperback -6.24928 4.10232 -0.331379
thorax -4.97162 1.80027 -2.95104
lowerneck 29.5659 -14.3282 -25.9987
upperneck -20.7242 -24.4399 49.2577
head 0.672609 -17.0906 26.1736
rclavicle -4.82146e-014 -3.97569e-016
rhumerus -9.64522 -12.8347 -52.4065
rradius 29.2895
rwrist 13.2682
rhand -18.6991 -5.80224
rfingers 7.12502
rthumb 7.59559 -35.6458
lclavicle -4.82146e-014 -3.97569e-016
lhumerus -57.0717 -15.4789 87.2593
lradius 54.9485
lwrist 43.8465
lhand -17.1619 -13.8821
lfingers 7.12502
lthumb 9.07913 15.9025
rfemur -25.0903 24.4715 24.3045
rtibia 35.5407
rfoot -18.027 18.1481
rtoes -0.896873
lfemur -36.199 -2.62974 -5.46519
ltibia 51.6598
lfoot -13.7047 10.0052
ltoes -33.3663
733
root 16.9924 15.8105 17.0194 16.9054 -40.1179 -6.49858
lowerback -1.74211 3.07636 4.39227
upperback -6.12399 4.11105 -0.463623
thorax -5.0334 1.80778 -3.02806
lowerneck 28.5777 -14.1172 -26.0079
upperneck -20.1388 -24.1028 48.9828
head 0.781356 -16.7818 25.8316
rclavicle -1.31252e-013 -8.74653e-015
rhumerus -7.77821 -13.1472 -51.4095
rradius 29.2865
rwrist 17.0967
rhand -18.9653 -6.13959
rfingers 7.12502
rthumb 7.33862 -35.9923
lclavicle -1.31252e-013 -8.74653e-015
lhumerus -57.6566 -15.6168 86.5864
lradius 55.7242
lwrist 44.723
lhand -16.8308 -13.6918
lfingers 7.12502
lthumb 9.39861 16.0786
rfemur -25.4503 25.8914 23.7136
rtibia 36.3272
rfoot -18.2524 18.5771
rtoes -0.822879
lfemur -36.2863 -3.07964 -4.51327
ltibia 50.8852
lfoot -13.5858 9.57694
ltoes -33.7835
734
root 17.0285 15.7794 17.1047 17.0204 -42.328 -6.61668
lowerback -1.38286 3.06153 4.22495
upperback -6.00248 4.09827 -0.612365
thorax -5.1095 1.8052 -3.10651
lowerneck 27.6098 -13.9021 -26.0233
upperneck -19.5914 -23.7603 48.7415
head 0.887367 -16.4791 25.5396
rclavicle -8.39865e-015 -1.59028e-015
rhumerus -5.92009 -13.6678 -50.5002
rradius 29.3259
rwrist 20.6693
rhand -19.1233 -6.64112
rfingers 7.12502
rthumb 7.18614 -36.4991
lclavicle -8.39865e-015 -1.59028e-015
lhumerus -58.211 -15.7603 85.902
lradius 56.335
lwrist 45.5263
lhand -16.5208 -13.5078
lfingers 7.12502
lthumb 9.69772 16.2489
rfemur -25.8626 27.195 23.0886
rtibia 37.2061
rfoot -18.469 18.9974
rtoes -0.785291
lfemur -36.358 -3.53833 -3.59252
ltibia 50.2361
lfoot -13.4248 9.02653
ltoes -34.1713
735
root 17.0652 15.7457 17.1888 17.1044 -44.4629 -6.70262
lowerback -1.00536 3.03628 4.05128
upperback -5.89298 4.07061 -0.773012
thorax -5.2099 1.79438 -3.19505
lowerneck 26.69 -13.6865 -26.0473
upperneck -19.1014 -23.4198 48.5423
head 0.985676 -16.1901 25.3068
rclavicle -4.06049e-014 -2.78299e-015
rhumerus -4.08805 -14.4323 -49.6993
rradius 29.3938
rwrist 23.8703
rhand -19.2103 -7.21548
rfingers 7.12502
rthumb 7.10211 -37.0763
lclavicle -4.06049e-014 -2.78299e-015
lhumerus -58.7326 -15.9355 85.2276
lradius 56.76
lwrist 46.2402
lhand -16.22 -13.3538
lfingers 7.12502
lthumb 9.98788 16.3892
rfemur -26.3182 28.3656 22.4559
rtibia 38.1528
rfoot -18.6928 19.3926
rtoes -0.798901
lfemur -36.4304 -4.00202 -2.68358
ltibia 49.7115
lfoot -13.2478 8.3524
ltoes -34.5009
736
root 17.1026 15.7096 17.2721 17.1844 -46.5166 -6.7752
lowerback -0.616275 3.00049 3.87792
upperback -5.81446 4.02792 -0.932748
thorax -5.35141 1.77437 -3.28424
lowerneck 25.8718 -13.4425 -26.1099
upperneck -18.6788 -23.0628 48.3964
head 1.06257 -15.9115 25.1754
rclavicle 5.21189e-015 -1.15295e-014
rhumerus -2.32781 -15.334 -49.0009
rradius 29.5182
rwrist 26.5071
rhand -19.2747 -7.77328
rfingers 7.12502
rthumb 7.03995 -37.6362
lclavicle 5.21189e-015 -1.15295e-014
lhumerus -59.2353 -16.1234 84.5711
lradius 56.9878
lwrist 46.8206
lhand -15.9252 -13.2416
lfingers 7.12502
lthumb 10.2724 16.4875
rfemur -26.8089 29.3939 21.8273
rtibia 39.1304
rfoot -18.9351 19.7659
rtoes -0.819166
lfemur -36.5186 -4.45586 -1.77574
ltibia 49.3041
lfoot -13.0791 7.56599
ltoes -34.7304
737
root 17.1402 15.6721 17.3554 17.2459 -48.4801 -6.82653
lowerback -0.226473 2.95792 3.71571
upperback -5.75733 3.97457 -1.09427
thorax -5.51657 1.74744 -3.38185
lowerneck 25.1534 -13.1832 -26.2136
upperneck -18.3285 -22.707 48.3064
head 1.1253 -15.6524 25.1349
rclavicle -4.06701e-014 1.82882e-014
rhumerus -0.669572 -16.2672 -48.3917
rradius 29.7319
rwrist 28.3732
rhand -19.3795 -8.33141
rfingers 7.12502
rthumb 6.9388 -38.1977
lclavicle -4.06701e-014 1.82882e-014
lhumerus -59.6921 -16.3217 83.9353
lradius 57.0005
lwrist 47.2265
lhand -15.6525 -13.1808
lfingers 7.12502
lthumb 10.5353 16.5351
rfemur -27.2986 30.2727 21.2059
rtibia 40.1026
rfoot -19.2208 20.1126
rtoes -0.865499
lfemur -36.6114 -4.91072 -0.877495
ltibia 48.9998
lfoot -12.9434 6.66966
ltoes -34.8438
738
root 17.1776 15.6349 17.4398 17.3012 -50.3348 -6.86133
lowerback 0.141161 2.90142 3.57475
upperback -5.72586 3.90051 -1.25229
thorax -5.69746 1.70831 -3.48627
lowerneck 24.5232 -12.9053 -26.3526
upperneck -18.022 -22.3448 48.2459
head 1.1708 -15.4026 25.1607
rclavicle -3.71603e-014 1.35174e-014
rhumerus 0.85416 -17.1977 -47.8569
rradius 30.0474
rwrist 29.3999
rhand -19.5713 -8.7697
rfingers 7.12502
rthumb 6.75365 -38.642
lclavicle -3.71603e-014 1.35174e-014
lhumerus -60.0933 -16.524 83.3214
lradius 56.7842
lwrist 47.4553
lhand -15.4096 -13.1588
lfingers 7.12502
lthumb 10.7697 16.5451
rfemur -27.7704 31.0131 20.5885
rtibia 41.0299
rfoot -19.5626 20.4339
rtoes -0.888706
lfemur -36.7178 -5.3831 0.0172783
ltibia 48.7781
lfoot -12.8417 5.64916
ltoes -34.7082
739
root 17.2145 15.5982 17.5259 17.3361 -52.089 -6.86558
lowerback 0.47749 2.83367 3.4514
upperback -5.71074 3.80875 -1.41308
thorax -5.8786 1.65909 -3.601
lowerneck 23.9287 -12.6324 -26.5065
upperneck -17.7194 -21.9984 48.1918
head 1.21995 -15.1646 25.1985
rclavicle 6.97361e-014 2.46493e-014
rhumerus 2.26882 -18.1565 -47.4235
rradius 30.4482
rwrist 29.634
rhand -19.8559 -9.09565
rfingers 7.12502
rthumb 6.47891 -38.9766
lclavicle 6.97361e-014 2.46493e-014
lhumerus -60.4066 -16.7301 82.7152
lradius 56.3302
lwrist 47.4962
lhand -15.184 -13.1216
lfingers 7.12502
lthumb 10.9873 16.5709
rfemur -28.2111 31.6424 19.9557
rtibia 41.8815
rfoot -19.9546 20.7511
rtoes -0.887077
lfemur -36.821 -5.85912 0.881937
ltibia 48.6149
lfoot -12.7304 4.59477
ltoes -34.6473
740
root 17.2507 15.5631 17.6141 17.3695 -53.7399 -6.85772
lowerback 0.766847 2.75156 3.34602
upperback -5.70378 3.69576 -1.56024
thorax -6.04369 1.59901 -3.70752
lowerneck 23.3473 -12.3717 -26.6581
upperneck -17.4207 -21.6599 48.1164
head 1.26328 -14.9275 25.2158
rclavicle 8.26571e-014 8.74653e-015
rhumerus 3.57526 -19.0886 -47.0632
rradius 30.9617
rwrist 29.0932
rhand -20.2236 -9.26925
rfingers 7.12502
rthumb 6.1239 -39.1607
lclavicle 8.26571e-014 8.74653e-015
lhumerus -60.614 -16.9365 82.1368
lradius 55.6395
lwrist 47.3813
lhand -14.9552 -12.991
lfingers 7.12502
lthumb 11.208 16.6896
rfemur -28.6243 32.2007 19.3018
rtibia 42.6296
rfoot -20.3611 21.0926
rtoes -0.783188
lfemur -36.9225 -6.34456 1.72877
ltibia 48.4888
lfoot -12.5934 3.52311
ltoes -34.6404
741
root 17.2859 15.5308 17.7055 17.3916 -55.2933 -6.8264
lowerback 1.00123 2.65486 3.27125
upperback -5.69922 3.56102 -1.71229
thorax -6.18021 1.52711 -3.83139
lowerneck 22.7336 -12.1481 -26.7533
upperneck -17.0912 -21.3412 47.9936
head 1.30854 -14.6897 25.1519
rclavicle 1.84497e-014 -1.59028e-015
rhumerus 4.77491 -20.03 -46.8104
rradius 31.5875
rwrist 27.9062
rhand -20.6552 -9.30722
rfingers 7.12502
rthumb 5.70723 -39.2104
lclavicle 1.84497e-014 -1.59028e-015
lhumerus -60.6799 -17.1287 81.5431
lradius 54.6908
lwrist 47.1126
lhand -14.7063 -12.7961
lfingers 7.12502
lthumb 11.448 16.8714
rfemur -29.002 32.7115 18.6078
rtibia 43.2572
rfoot -20.7825 21.4697
rtoes -0.607622
lfemur -37.0121 -6.84556 2.54219
ltibia 48.3804
lfoot -12.4221 2.45815
ltoes -34.7066
